<svg width="516" height="574" viewBox="0 0 516 574" fill="none" xmlns="http://www.w3.org/2000/svg">
<path d="M239.775 140.563C240.149 140.565 240.513 140.447 240.813 140.226C241.114 140.005 241.336 139.693 241.446 139.336C241.543 138.203 241.251 137.071 240.618 136.126C239.913 135.13 239.118 134.416 237.813 135.178C235.914 136.288 237.615 140.563 239.775 140.563Z" fill="url(#paint0_linear_715_1098)"/>
<path d="M244.539 135.394C246.489 137.838 248.675 140.083 251.064 142.099C248.58 143.515 247.545 143.899 247.539 144.889C247.556 145.21 247.679 145.516 247.89 145.759C248.068 145.918 248.283 146.029 248.516 146.082C248.748 146.134 248.99 146.126 249.219 146.059C250.603 145.436 251.925 144.684 253.167 143.812C253.431 143.632 253.646 143.389 253.794 143.107C253.942 142.824 254.018 142.508 254.016 142.189C253.992 141.058 252.939 140.287 252.378 139.882C250.236 138.019 248.247 135.877 246.078 133.795C245.809 133.604 245.487 133.499 245.157 133.495C244.935 133.495 244.719 133.565 244.54 133.695C244.361 133.826 244.227 134.009 244.158 134.22C244.09 134.431 244.09 134.658 244.158 134.869C244.226 135.08 244.36 135.264 244.539 135.394Z" fill="url(#paint1_linear_715_1098)"/>
<path d="M251.022 145.356C249.692 146.082 248.192 146.441 246.676 146.395C245.161 146.35 243.686 145.902 242.4 145.098C242.422 144.922 242.405 144.743 242.349 144.574C242.293 144.406 242.201 144.252 242.078 144.123C241.956 143.994 241.806 143.895 241.64 143.831C241.474 143.767 241.297 143.741 241.119 143.754C240.456 143.754 240.219 144.087 238.938 145.212C238.77 145.367 238.651 145.567 238.595 145.789C238.539 146.01 238.549 146.243 238.623 146.459C238.697 146.675 238.832 146.865 239.012 147.005C239.193 147.146 239.41 147.23 239.637 147.249C240.627 153.303 246.441 155.451 250.098 152.106C251.04 151.005 249.834 149.244 248.238 150.306C247.699 150.815 246.995 151.113 246.255 151.149C245.514 151.184 244.786 150.953 244.2 150.498C243.296 149.744 242.634 148.739 242.298 147.609C246.702 149.595 251.841 148.023 252.477 146.757C252.585 146.556 252.623 146.325 252.588 146.099C252.552 145.874 252.443 145.666 252.279 145.507C252.114 145.349 251.903 145.249 251.676 145.221C251.449 145.194 251.22 145.241 251.022 145.356Z" fill="url(#paint2_linear_715_1098)"/>
<path d="M237.762 132.937C239.742 132.742 239.712 130.633 238.464 130.417C237.413 130.444 236.394 130.784 235.536 131.393C234.679 132.001 234.022 132.851 233.649 133.834C233.581 134.019 233.565 134.22 233.6 134.414C233.636 134.608 233.724 134.789 233.853 134.937C233.983 135.086 234.15 135.198 234.337 135.26C234.524 135.322 234.725 135.333 234.918 135.292C235.731 135.103 235.479 134.392 236.814 133.447C237.106 133.236 237.425 133.065 237.762 132.937Z" fill="url(#paint3_linear_715_1098)"/>
<path d="M100.251 233.083C101.472 232.321 100.272 230.173 99.0094 230.956C92.9494 234.742 52.3294 259.933 38.2504 269.056C37.99 269.257 37.8149 269.549 37.76 269.873C37.7052 270.198 37.7745 270.531 37.9543 270.806C38.134 271.082 38.411 271.279 38.73 271.36C39.0489 271.44 39.3865 271.398 39.6754 271.24C60.0004 259.03 80.0074 245.86 100.251 233.083Z" fill="url(#paint4_linear_715_1098)"/>
<path d="M77.3252 170.788C77.4789 170.796 77.6324 170.77 77.7744 170.71C77.9163 170.651 78.0429 170.56 78.1445 170.444C78.2462 170.329 78.3203 170.192 78.3613 170.043C78.4023 169.895 78.4091 169.739 78.3812 169.588C78.4022 169.444 78.3933 169.298 78.3551 169.159C78.3169 169.019 78.2502 168.889 78.1592 168.776C78.0682 168.663 77.9548 168.57 77.8263 168.504C77.6977 168.437 77.5567 168.397 77.4122 168.388C52.0409 166.989 26.6004 167.497 1.30521 169.909C1.03351 169.948 0.784362 170.082 0.601983 170.287C0.419604 170.492 0.315786 170.755 0.308954 171.029C0.302121 171.304 0.392716 171.572 0.564661 171.785C0.736605 171.999 0.978779 172.145 1.24821 172.198C1.24821 172.198 74.7932 170.755 77.3252 170.788Z" fill="url(#paint5_linear_715_1098)"/>
<path d="M85.0593 68.0699C85.2066 68.1948 85.3796 68.2859 85.5659 68.3369C85.7523 68.3878 85.9476 68.3973 86.138 68.3647C86.3284 68.3321 86.5094 68.2582 86.6682 68.1482C86.827 68.0382 86.9598 67.8947 87.0573 67.7279C87.1441 67.4979 87.1676 67.2488 87.1254 67.0066C87.0832 66.7644 86.9768 66.5379 86.8172 66.3509C76.5002 55.5479 65.2833 44.5979 52.5603 32.9189C52.4407 32.8086 52.2973 32.7276 52.1411 32.6823C51.985 32.6369 51.8204 32.6285 51.6605 32.6576C51.5005 32.6866 51.3495 32.7525 51.2193 32.8499C51.0891 32.9473 50.9833 33.0736 50.9102 33.2189C50.0522 34.9349 49.2273 32.0339 85.0593 68.0699Z" fill="url(#paint6_linear_715_1098)"/>
<path d="M130.359 25.9541C139.59 43.4981 139.464 43.6211 140.463 43.6211H140.736C140.927 43.6197 141.113 43.5666 141.276 43.4675C141.439 43.3683 141.572 43.2268 141.661 43.058C141.749 42.8892 141.791 42.6995 141.78 42.5091C141.769 42.3188 141.707 42.1349 141.6 41.9771C140.058 38.6231 138.219 35.3381 136.443 32.1551C135.864 31.1231 128.964 18.4181 127.698 16.1171C127.598 15.9284 127.443 15.7739 127.255 15.6734C127.066 15.5729 126.852 15.531 126.639 15.5531C126.459 15.5541 126.282 15.6012 126.125 15.6901C125.969 15.779 125.837 15.9066 125.744 16.0607C125.651 16.2148 125.599 16.3903 125.592 16.5703C125.586 16.7504 125.626 16.929 125.709 17.0891C127.239 20.0411 128.805 22.9991 130.359 25.9541Z" fill="url(#paint7_linear_715_1098)"/>
<path d="M278.667 48.1122C280.257 47.4912 278.037 48.8322 289.467 2.36525C289.508 2.1483 289.489 1.92422 289.41 1.71767C289.332 1.51113 289.199 1.33012 289.025 1.19458C288.85 1.05904 288.642 0.974224 288.422 0.949464C288.203 0.924704 287.981 0.96096 287.781 1.05424C287.456 1.21424 287.207 1.49545 287.088 1.83724C283.013 16.6967 279.725 31.7606 277.236 46.9662C277.204 47.1507 277.222 47.3404 277.289 47.5154C277.355 47.6905 277.467 47.8446 277.613 47.9616C277.759 48.0786 277.934 48.1543 278.12 48.1808C278.305 48.2073 278.494 48.1836 278.667 48.1122Z" fill="url(#paint8_linear_715_1098)"/>
<path d="M386.154 83.9775C389.463 79.6336 393.316 75.7318 397.617 72.3675C397.617 72.3675 431.688 42.4815 438.255 36.6135C439.38 35.6445 438.285 33.6645 436.533 34.6725C430.464 39.8955 395.385 70.9725 395.385 70.9725C391.153 74.3093 387.395 78.2072 384.216 82.5585C384.048 82.8463 383.996 83.1867 384.069 83.5116C384.142 83.8365 384.335 84.1219 384.609 84.3105C384.869 84.4239 385.158 84.4528 385.435 84.3931C385.712 84.3333 385.964 84.188 386.154 83.9775Z" fill="url(#paint9_linear_715_1098)"/>
<path d="M419.919 131.219C419.523 131.366 419.358 131.78 419.238 132.26C419.191 132.446 419.196 132.642 419.252 132.826C419.309 133.009 419.414 133.174 419.558 133.302C419.702 133.43 419.877 133.516 420.067 133.55C420.256 133.585 420.451 133.567 420.63 133.499C442.116 125.306 445.887 124.742 455.604 121.406C455.898 121.259 456.134 121.017 456.273 120.719C456.36 120.516 456.389 120.294 456.357 120.077C456.326 119.859 456.235 119.654 456.095 119.484C455.955 119.315 455.771 119.187 455.564 119.114C455.356 119.042 455.132 119.028 454.917 119.075C446.433 121.4 428.07 128.156 419.919 131.219Z" fill="url(#paint10_linear_715_1098)"/>
<path d="M514.998 233.899C514.302 233.626 421.512 230.158 414.684 230.299C414.501 230.303 414.321 230.356 414.164 230.451C414.007 230.546 413.878 230.681 413.789 230.842C413.7 231.003 413.655 231.184 413.659 231.368C413.662 231.552 413.714 231.732 413.808 231.889C413.889 232.079 414.023 232.243 414.192 232.36C414.362 232.478 414.562 232.546 414.768 232.555C423.624 232.855 510.402 236.344 514.53 236.344C514.822 236.339 515.103 236.233 515.326 236.045C515.55 235.857 515.701 235.598 515.756 235.311C515.811 235.025 515.766 234.728 515.628 234.471C515.49 234.214 515.268 234.012 514.998 233.899Z" fill="url(#paint11_linear_715_1098)"/>
<path d="M480.438 295.876C480.186 295.576 481.614 296.296 456.807 284.857C458.175 282.409 459.59 279.982 461.052 277.576C461.161 277.279 461.169 276.954 461.074 276.653C460.98 276.351 460.788 276.089 460.529 275.907C460.27 275.726 459.958 275.635 459.642 275.649C459.326 275.664 459.023 275.782 458.781 275.986L448.536 281.323C429.636 272.494 412.263 264.901 395.508 258.139C388.677 255.391 370.557 248.239 370.497 248.2L370.473 248.245C369.378 247.927 369.273 248.164 369.039 248.737C368.619 249.778 368.679 249.757 372.861 251.461C356.319 283.459 340.761 309.274 322.386 346.954C319.648 348.231 317.417 350.389 316.05 353.083C314.199 357.778 318.882 357.805 298.05 267.322C290.118 232.864 290.736 234.799 290.328 234.463C290.15 234.315 289.935 234.219 289.706 234.184C289.477 234.15 289.243 234.179 289.029 234.268C289.029 234.268 274.569 236.905 269.307 237.994C268.857 234.459 269.285 230.867 270.552 227.536C270.758 227.727 271.022 227.843 271.302 227.866C271.581 227.889 271.861 227.817 272.094 227.662C277.084 224.855 281.688 221.412 285.789 217.417C287.949 215.556 289.782 213.346 291.213 210.88C291.86 208.538 291.555 206.035 290.364 203.917C288.354 198.187 285.949 192.604 283.164 187.207C314.791 167.228 342.497 141.633 364.914 111.685C365.742 111.787 371.022 112.441 371.394 112.441C374.001 112.441 375.084 109.942 373.527 108.388C374.643 108.352 376.374 108.112 376.707 106.477C376.783 106.023 376.716 105.556 376.517 105.141C376.318 104.725 375.996 104.381 375.594 104.155C375.741 103.923 375.841 103.664 375.886 103.394C375.931 103.123 375.922 102.846 375.859 102.579C375.795 102.312 375.679 102.06 375.516 101.839C375.354 101.617 375.149 101.431 374.913 101.29C372.954 100.095 370.654 99.5848 368.373 99.8381C368.642 99.5792 368.843 99.258 368.958 98.9029C369.073 98.5478 369.098 98.1698 369.032 97.8025C368.965 97.4353 368.809 97.0902 368.577 96.7979C368.345 96.5056 368.044 96.2751 367.701 96.1271C366.791 95.8373 365.803 95.917 364.95 96.3491C361.916 97.2683 359.284 99.1914 357.486 101.803C356.256 102.052 331.608 113.407 315.486 122.113C299.556 130.729 263.919 152.35 250.104 161.029C249.918 160.579 249.702 160.042 249.579 159.649C250.239 159.453 250.887 159.218 251.52 158.947C257.598 155.401 259.545 147.466 258.237 140.977C258.144 140.488 257.997 140.017 257.892 139.531C259.499 137.373 260.811 135.01 261.792 132.505C261.926 131.238 261.806 129.957 261.44 128.737C261.075 127.516 260.47 126.38 259.662 125.395C259.096 124.662 258.78 123.766 258.762 122.839C258.972 121 262.062 119.272 259.962 115.495C259.257 114.196 258.311 113.042 257.175 112.096C253.257 107.977 248.435 104.824 243.09 102.886C238.119 101.11 232.687 101.11 227.715 102.886C225.524 104.074 223.408 105.395 221.379 106.843C219.361 107.873 217.241 108.69 215.052 109.279C212.54 110.31 210.334 111.97 208.648 114.099C206.962 116.229 205.853 118.756 205.425 121.438C204.432 126.955 206.817 132.238 206.154 137.638C205.629 141.892 200.934 144.643 196.41 146.773C194.911 147.338 193.468 148.041 192.099 148.873C152.751 135.673 116.694 125.191 94.1525 119.434C93.8546 119.307 93.519 119.3 93.2165 119.416C92.1325 117.45 90.7038 115.695 88.9985 114.235C88.6315 113.985 88.2078 113.831 87.766 113.787C87.3243 113.743 86.8785 113.811 86.4695 113.983C85.1225 114.676 85.3955 116.41 85.8065 117.865C83.5559 116.89 81.066 116.608 78.6545 117.055C78.3297 117.113 78.025 117.252 77.7689 117.46C77.5129 117.668 77.314 117.938 77.191 118.244C77.068 118.55 77.0249 118.882 77.0657 119.21C77.1065 119.537 77.23 119.849 77.4245 120.115C76.9552 120.23 76.5335 120.488 76.218 120.854C75.9025 121.22 75.709 121.675 75.6644 122.156C75.6199 122.637 75.7264 123.12 75.9693 123.538C76.2122 123.955 76.5793 124.287 77.0195 124.486C76.5759 124.871 76.2931 125.409 76.227 125.993C76.1609 126.577 76.3163 127.164 76.6625 127.639C78.3395 130.057 80.6615 128.305 88.0625 132.352C88.0355 132.523 87.9755 132.673 87.9485 132.844C87.9485 136.198 90.7925 138.016 93.0755 139.48C116.733 154.654 138.75 168.544 176.949 189.433C173.799 196.312 170.319 203.122 166.56 209.68C166.43 209.937 166.383 210.229 166.427 210.515C166.471 210.8 166.604 211.064 166.806 211.27C175.951 218.733 185.974 225.048 196.653 230.074C198.402 231.241 200.388 232.004 202.467 232.309C203.306 232.326 204.123 232.036 204.762 231.493C205.062 231.142 205.311 230.764 205.581 230.395C205.668 230.431 205.758 230.458 205.845 230.494C206.214 238.783 201.75 245.449 197.391 252.592C168.78 258.799 139.875 265.468 111.291 272.488C110.981 272.627 110.733 272.874 110.591 273.184C110.45 273.493 110.426 273.843 110.523 274.168C117.957 294.25 124.728 314.62 131.823 335.329C131.523 335.209 59.7965 306.964 46.5845 303.442C44.9075 301.687 41.9405 304.831 44.5205 305.452C68.5745 339.208 94.2575 383.989 128.22 441.052C116.813 438.832 105.014 439.828 94.1405 443.929C85.5515 447.247 76.0715 454.879 77.6405 465.478C79.1795 475.978 90.6755 481.555 99.2675 485.32C111.409 490.478 123.019 496.808 133.932 504.22C144.558 511.806 152.758 522.307 157.542 534.454C157.297 534.599 157.11 534.825 157.014 535.093C155.316 540.319 151.824 556.3 150.492 562.336C149.661 565.283 149.075 568.293 148.74 571.336C148.743 571.644 148.858 571.941 149.064 572.171C149.27 572.4 149.552 572.547 149.858 572.584C150.164 572.621 150.473 572.545 150.727 572.37C150.982 572.196 151.164 571.935 151.239 571.636C152.124 568.669 152.799 565.644 153.258 562.582C153.894 559.606 158.376 540.25 158.958 537.655C206.058 556.093 256.857 558.685 306.702 548.002C309.707 547.737 312.633 546.901 315.324 545.539C316.011 547.522 324.999 572.116 324.999 572.116C325.122 572.457 325.374 572.735 325.702 572.89C326.029 573.045 326.405 573.063 326.745 572.941C327.086 572.819 327.365 572.566 327.52 572.239C327.674 571.911 327.693 571.536 327.57 571.195C327.57 571.195 318.444 546.505 317.187 543.511C318.125 542.087 318.652 540.433 318.711 538.729C320.311 529.664 323.785 521.032 328.911 513.387C334.038 505.741 340.704 499.25 348.483 494.329C367.944 481.99 381.714 478.843 403.302 471.367C409.359 469.552 415.267 467.271 420.972 464.545C429.888 460.186 438.312 451.207 433.221 441.256C428.268 431.569 413.889 427.72 402.654 428.257C400.816 428.362 398.986 428.578 397.173 428.905C427.113 386.356 450.117 342.205 480.444 297.535C480.638 297.301 480.743 297.008 480.742 296.704C480.741 296.401 480.633 296.108 480.438 295.876ZM375.3 252.799C375.6 252.799 402.177 263.404 415.581 269.206C421.956 271.966 442.239 281.059 445.905 282.685L326.418 344.899C339.546 318.4 375.108 253.099 375.3 252.799ZM315.858 362.5C316.026 362.349 316.159 362.164 316.249 361.957C316.339 361.75 316.384 361.526 316.38 361.3C316.38 361.177 316.344 361.051 316.329 360.928C317.946 355.555 318.531 351.877 323.376 349.45C328.623 346.822 455.781 280.51 456.084 280.351C448.741 293.537 442.353 307.232 436.968 321.331C435.468 325.003 390.714 431.938 388.368 436.546C385.875 440.821 380.679 442.879 376.308 445.285C338.187 466.312 300.894 486.274 264.357 508.957C284.034 460.438 300.408 412.519 315.867 362.503L315.858 362.5ZM237.744 241.132C237.985 241.893 238.388 242.592 238.924 243.182C239.46 243.773 240.118 244.24 240.852 244.552C236.671 244.946 232.459 244.907 228.285 244.435C224.369 243.62 220.496 242.608 216.681 241.405L218.085 234.262C224.748 235.802 231.553 236.643 238.389 236.77C237.704 238.115 237.478 239.647 237.744 241.132ZM249.3 240.13C250.014 240.052 250.723 239.937 251.424 239.785C250.799 240.583 250.001 241.228 249.09 241.671C248.179 242.115 247.179 242.346 246.165 242.347C244.683 242.527 241.926 242.866 240.831 241.543C240.356 240.808 240.139 239.936 240.215 239.063C240.291 238.191 240.656 237.37 241.251 236.728C244.123 236.67 246.985 236.383 249.81 235.87C249.855 235.87 249.9 235.93 249.945 235.933C250.531 236.002 251.067 236.291 251.445 236.743L249.045 237.151C248.674 237.214 248.341 237.414 248.11 237.711C247.88 238.008 247.769 238.382 247.801 238.756C247.833 239.131 248.004 239.481 248.281 239.735C248.558 239.99 248.921 240.131 249.297 240.13H249.3ZM237.924 299.41C238.158 298.486 238.923 296.197 239.778 295.732C243.483 279.07 246.174 264.919 243.342 248.575C243.274 248.183 243.365 247.78 243.594 247.454C243.824 247.129 244.173 246.908 244.565 246.84C244.957 246.772 245.36 246.862 245.686 247.091C246.011 247.321 246.232 247.67 246.3 248.062C247.368 255.082 247.702 262.195 247.296 269.284C248.253 268.7 249.066 267.908 249.675 266.967C250.284 266.026 250.674 264.96 250.815 263.848C251.17 258.452 250.859 253.034 249.888 247.714C249.849 247.518 249.849 247.317 249.889 247.121C249.928 246.926 250.006 246.74 250.119 246.575C250.231 246.41 250.375 246.269 250.542 246.16C250.71 246.052 250.897 245.977 251.093 245.942C251.29 245.907 251.491 245.911 251.686 245.955C251.881 245.998 252.065 246.08 252.228 246.196C252.39 246.311 252.528 246.458 252.634 246.628C252.739 246.797 252.809 246.986 252.84 247.183C253.881 252.82 254.197 258.566 253.782 264.283C253.534 266.187 252.767 267.985 251.565 269.482C250.364 270.98 248.774 272.118 246.969 272.773C246.183 279.391 244.386 288.478 242.877 295.516C242.961 295.537 243.043 295.564 243.123 295.594C244.392 296.101 244.548 299.938 244.836 301.237C250.482 327.223 254.52 335.137 277.266 394.3C272.022 396.1 276.627 394.879 245.766 406.621C240.027 408.805 219.636 416.056 215.235 417.664C213.348 413.59 203.721 392.764 200.733 386.365C204.873 378.094 218.82 345.922 220.737 341.248C227.478 324.823 218.745 346.873 237.924 299.41ZM253.479 235.081C255.615 234.525 257.714 233.837 259.764 233.02L260.091 240.181C257.55 241.081 255.015 241.909 252.495 242.56C253.603 241.688 254.326 240.418 254.51 239.021C254.694 237.623 254.324 236.21 253.479 235.081ZM278.118 396.529C282.357 407.539 286.644 418.537 291.081 429.475C291.231 430.156 278.733 465.148 261.339 510.295C245.808 483.187 230.271 450.067 216.15 419.638C233.022 414.052 272.949 398.899 278.118 396.529ZM287.199 237.031C287.555 236.919 287.917 236.826 288.282 236.752C288.562 237.495 288.78 238.259 288.933 239.038C299.328 285.307 308.796 322.483 313.533 360.208C313.14 361.447 312.828 362.695 312.483 363.94C312.177 355.812 311.145 347.728 309.399 339.784C301.224 299.284 290.913 275.644 277.512 254.719C274.125 250.354 271.497 245.449 269.739 240.211C270.852 240.022 286.128 237.349 287.199 237.031ZM271.383 253.291C271.633 253.172 271.905 253.109 272.181 253.106C272.457 253.102 272.73 253.158 272.982 253.27C273.268 253.416 273.498 253.65 273.641 253.937C273.784 254.223 273.831 254.548 273.776 254.864C273.721 255.18 273.566 255.469 273.334 255.69C273.102 255.912 272.805 256.053 272.487 256.093C264.195 258.757 259.689 253.945 258.111 245.608C258.038 245.217 258.123 244.813 258.347 244.484C258.572 244.156 258.917 243.93 259.308 243.856C259.7 243.782 260.104 243.867 260.432 244.092C260.761 244.316 260.987 244.662 261.06 245.053C262.281 251.506 265.14 255.334 271.383 253.291ZM266.655 237.556C265.329 238.156 264.006 238.723 262.683 239.242C262.854 238.342 262.845 238.816 262.044 232.084C263.79 231.299 265.493 230.421 267.144 229.453C266.479 232.1 266.314 234.848 266.655 237.556ZM286.827 202.099C287.884 204.147 288.605 206.351 288.963 208.627C288.963 210.529 286.605 212.596 285.252 214.063C281.516 218.082 277.236 221.561 272.538 224.398C272.487 224.098 270.342 212.887 270.279 212.581C270.381 212.281 273.816 182.881 272.103 174.052C278.125 182.773 283.069 192.19 286.827 202.099ZM365.67 99.1991C363.249 101.086 363.168 100.714 362.928 101.299C362.836 101.56 362.821 101.842 362.884 102.111C362.948 102.38 363.089 102.626 363.288 102.817C363.453 102.954 363.646 103.053 363.854 103.105C364.062 103.157 364.279 103.161 364.488 103.117C365.943 102.732 367.453 102.602 368.952 102.733C368.342 102.814 367.74 102.948 367.152 103.132C366.826 103.221 366.544 103.428 366.361 103.713C366.179 103.999 366.109 104.341 366.165 104.675C366.221 105.009 366.399 105.31 366.665 105.52C366.93 105.73 367.265 105.834 367.602 105.811C368.93 105.627 370.277 105.627 371.604 105.811C372.183 105.826 371.796 105.838 367.704 105.991C365.367 105.463 364.911 108.508 366.804 108.742C367.814 108.926 368.809 109.185 369.78 109.516C368.976 109.423 365.448 108.976 364.461 108.871C363.075 106.786 361.476 104.85 359.691 103.093C361.306 101.295 363.37 99.9587 365.67 99.2201V99.1991ZM339.9 112.666C340.2 112.522 357.225 104.524 357.528 104.641C359.342 106.564 360.957 108.664 362.349 110.911C361.934 111.449 361.49 111.965 361.02 112.456C339.106 141.065 312.303 165.57 281.85 184.84C279.466 180.399 276.828 176.098 273.951 171.958C273.819 171.766 273.64 171.612 273.43 171.511C273.221 171.41 272.988 171.365 272.756 171.38C272.524 171.395 272.299 171.471 272.105 171.599C271.911 171.727 271.753 171.904 271.647 172.111C270.991 168.935 269.523 165.982 267.388 163.54C265.253 161.098 262.522 159.25 259.461 158.176C285.33 142.342 312.084 125.977 339.9 112.666ZM256.5 159.991C267.132 160.948 270.105 173.191 270.18 180.295C270.18 185.065 269.829 187.903 268.503 204.496C265.952 192.85 262.596 181.394 258.459 170.212C257.642 167.014 256.055 164.064 253.836 161.62L256.5 159.991ZM249.672 164.014C250.335 163.816 250.239 163.819 251.694 162.931C254.376 166.094 256.257 169.856 257.178 173.899C258.321 177.463 260.298 182.899 263.034 192.88C265.893 203.315 268.152 213.906 269.799 224.599C261.256 230.712 251.067 234.102 240.564 234.325C221.262 234.775 208.248 228.154 206.841 228.469C210.141 223.106 213.048 217.511 215.541 211.729C221.949 196.951 225.65 181.142 226.467 165.055C226.554 164.866 226.839 164.203 226.896 164.059C247.611 171.769 227.544 164.278 240.924 169.291C241.054 169.344 241.194 169.371 241.335 169.37C241.475 169.368 241.614 169.339 241.743 169.282C241.872 169.226 241.988 169.145 242.085 169.043C242.182 168.941 242.257 168.821 242.307 168.689C242.356 168.557 242.378 168.417 242.373 168.277C242.367 168.136 242.333 167.998 242.273 167.871C242.213 167.744 242.128 167.63 242.023 167.537C241.918 167.443 241.796 167.371 241.662 167.326C229.662 162.826 231.426 163.537 230.808 163.111C230.766 162.788 230.704 162.467 230.622 162.151C230.622 162.058 230.577 161.989 230.565 161.902C233.647 163.666 237.082 164.725 240.621 165.004C242.667 165.421 244.753 165.609 246.84 165.565C247.399 165.548 247.945 165.398 248.434 165.129C248.924 164.859 249.342 164.477 249.654 164.014H249.672ZM214.224 240.61C212.07 239.926 209.978 239.056 207.972 238.012C208.546 235.89 208.718 233.679 208.479 231.493C210.744 232.288 213.045 232.975 215.379 233.578C214.179 239.194 214.059 239.299 214.224 240.61ZM218.1 143.317C219.18 139.531 225.198 142.633 225.495 145.576C225.475 146.405 225.65 147.227 226.005 147.976C226.509 148.69 226.947 148.531 228.042 149.836C228.9 150.856 230.442 152.695 230.907 151.447C231.347 149.652 231.184 147.761 230.442 146.068C230.511 144.676 231.047 143.347 231.963 142.297C234.243 138.862 231.894 134.449 234.204 131.182C236.742 127.972 238.842 128.899 242.238 125.845C242.81 125.322 243.227 124.652 243.446 123.909C243.665 123.166 243.677 122.377 243.48 121.627C245.798 122.915 247.925 124.52 249.798 126.397C249.921 126.589 250.041 126.784 250.158 126.979H250.119C249.209 127.108 248.385 127.584 247.818 128.308C247.071 129.262 248.418 130.708 249.318 130.057C249.632 129.766 250.014 129.56 250.428 129.457C250.791 129.376 251.169 129.391 251.523 129.502H251.556C251.925 130.228 252.285 130.96 252.609 131.71C252.406 131.467 252.145 131.28 251.849 131.166C251.553 131.053 251.233 131.017 250.919 131.062C250.606 131.107 250.309 131.232 250.057 131.424C249.805 131.616 249.607 131.869 249.48 132.16C249.299 132.913 249.34 133.702 249.599 134.432C249.858 135.161 250.323 135.8 250.938 136.27C251.203 136.51 251.537 136.66 251.891 136.701C252.246 136.741 252.605 136.669 252.917 136.496C253.229 136.322 253.479 136.055 253.631 135.732C253.784 135.409 253.831 135.046 253.767 134.695C255.741 140.485 256.788 147.784 253.788 152.932C253.13 154.09 252.231 155.094 251.151 155.874C250.072 156.655 248.837 157.194 247.53 157.456C247.344 157.505 247.17 157.59 247.017 157.708C246.865 157.826 246.738 157.974 246.644 158.142C246.55 158.31 246.491 158.495 246.471 158.687C246.45 158.878 246.469 159.072 246.525 159.256C247.071 160.858 247.425 161.749 247.725 162.643C247.185 163.129 245.406 162.97 244.425 162.88C239.407 162.788 234.488 161.466 230.1 159.028C229.662 158.782 229.923 159.37 229.419 157.549C229.134 156.154 228.732 154.785 228.219 153.457C228.057 153.109 227.466 151.207 226.119 152.053C224.936 152.227 223.727 152.023 222.666 151.472C221.604 150.921 220.742 150.049 220.203 148.981C219.452 148.254 218.873 147.368 218.509 146.388C218.145 145.408 218.005 144.358 218.1 143.317ZM223.305 171.295C221.982 184.101 218.794 196.644 213.843 208.528C214.272 193.792 213.393 187.087 213.501 181.228C217.903 179.269 221.405 175.722 223.305 171.295ZM88.6985 129.658C86.5328 128.513 84.2202 127.671 81.8255 127.156C80.9391 126.994 80.0702 126.748 79.2305 126.421C80.564 126.318 81.9052 126.461 83.1875 126.841C83.4317 126.892 83.6855 126.874 83.9198 126.788C84.1542 126.702 84.3597 126.552 84.5129 126.355C84.6662 126.158 84.761 125.922 84.7865 125.674C84.8121 125.426 84.7674 125.175 84.6575 124.951C84.6296 124.752 84.5452 124.566 84.4144 124.414C84.2835 124.262 84.1118 124.15 83.9195 124.093C83.275 123.899 82.6173 123.753 81.9515 123.655L78.9755 122.665C79.6368 122.575 80.3099 122.632 80.9465 122.833C82.0378 123.041 83.1134 123.325 84.1655 123.682C85.9205 124.282 86.3495 121.48 85.0175 121.003C83.9355 120.698 82.9102 120.22 81.9815 119.587C83.9216 119.81 85.7602 120.573 87.2885 121.789C87.4843 122.048 87.7691 122.225 88.088 122.287C88.4069 122.348 88.7373 122.289 89.0153 122.122C89.2934 121.954 89.4995 121.689 89.5939 121.379C89.6883 121.068 89.6643 120.733 89.5265 120.439C89.0464 119.302 88.6504 118.13 88.3415 116.935C89.6593 118.52 90.7777 120.261 91.6715 122.119L89.9435 126.619C89.4427 127.595 89.0262 128.611 88.6985 129.658ZM205.659 225.04C204.939 226.27 203.598 229.366 202.443 229.618C201.186 229.894 197.595 227.749 196.086 227.035C187.059 222.694 178.55 217.349 170.721 211.099C169.617 210.349 169.389 210.043 169.338 210.166C173.05 203.9 176.356 197.402 179.238 190.714C179.469 190.837 179.697 190.972 179.931 191.092C180.243 191.25 180.604 191.279 180.937 191.172C181.269 191.065 181.546 190.832 181.707 190.522C181.868 190.221 181.902 189.869 181.803 189.543C181.704 189.217 181.48 188.943 181.179 188.782C148.479 171.268 125.49 157.399 94.3175 137.437C91.5035 135.637 89.9705 134.422 90.8885 131.737C91.8429 128.515 93.0744 125.381 94.5695 122.371C94.8695 122.422 126.639 131.314 130.188 132.349C156.375 139.795 172.788 145.273 189.288 150.796C188.012 151.529 186.924 152.551 186.113 153.779C185.301 155.007 184.788 156.408 184.614 157.87C184.452 161.491 188.013 165.637 185.514 168.73C183.819 170.878 180.114 170.53 177.864 172.33C177.156 173.082 176.634 173.99 176.341 174.981C176.048 175.971 175.991 177.017 176.175 178.033C176.36 179.05 176.78 180.008 177.403 180.833C178.026 181.657 178.833 182.324 179.76 182.779C179.8 182.811 179.851 182.826 179.902 182.821C179.953 182.816 180 182.79 180.032 182.751C180.064 182.711 180.079 182.66 180.074 182.609C180.069 182.558 180.043 182.511 180.003 182.479C178.902 181.228 180.003 179.032 181.581 178.477C183.306 178.113 185.101 178.311 186.705 179.041C192.589 181.303 198.799 182.603 205.095 182.89C207.086 182.953 209.074 182.699 210.984 182.137C210.945 191.416 212.127 200.437 211.122 214.612C209.376 218.299 207.543 221.824 205.659 225.04ZM200.286 255.604C203.625 256.13 207.044 255.521 209.996 253.873C212.947 252.226 215.26 249.635 216.564 246.517C216.736 246.168 217.037 245.9 217.403 245.768C217.769 245.637 218.172 245.653 218.527 245.813C218.881 245.973 219.16 246.264 219.304 246.626C219.448 246.987 219.445 247.39 219.297 247.75C217.723 251.426 214.981 254.481 211.496 256.441C208.01 258.401 203.975 259.157 200.016 258.592C199.819 258.574 199.628 258.518 199.453 258.426C199.278 258.334 199.122 258.209 198.995 258.057C198.869 257.905 198.773 257.73 198.714 257.541C198.655 257.353 198.634 257.154 198.651 256.957C198.669 256.76 198.726 256.569 198.817 256.393C198.909 256.218 199.034 256.063 199.186 255.936C199.338 255.809 199.513 255.714 199.702 255.655C199.891 255.596 200.089 255.574 200.286 255.592V255.604ZM115.161 279.379C113.478 274.813 113.361 275.065 113.361 274.711C114.903 274.09 192.276 256.429 195.618 255.7C179.691 283.579 173.889 318.85 169.971 350.764C168.318 350.083 144.912 340.591 134.706 336.514C129.036 317.671 122.565 299.461 115.161 279.379ZM48.6545 306.337C49.8545 306.757 180.087 357.688 184.398 359.92C188.37 363.52 227.967 456.685 256.578 507.82C253.198 505.855 249.69 504.117 246.078 502.618C237.735 498.586 143.376 455.974 139.956 454.189C138.147 453.082 79.9535 351.313 48.6545 306.337ZM413.613 431.764C419.248 432.778 424.463 435.42 428.613 439.363C430.425 441.17 431.563 443.542 431.84 446.085C432.117 448.628 431.515 451.189 430.134 453.343C427.036 457.429 422.89 460.6 418.134 462.52C390.978 473.812 373.098 475.618 348.315 490.807C339.978 495.993 332.795 502.837 327.213 510.915C321.632 518.993 317.771 528.133 315.87 537.766C315.728 538.936 315.474 540.089 315.111 541.21C314.758 541.931 314.226 542.549 313.566 543.005C312.906 543.46 312.139 543.739 311.34 543.814C289.128 548.95 266.393 551.483 243.594 551.362C215.152 550.995 187.006 545.528 160.494 535.222V535.183L160.473 535.102C153.573 510.715 130.02 496.648 112.908 488.188C98.8085 481.225 91.7435 479.521 84.4595 472.405C82.7928 470.761 81.5866 468.709 80.9612 466.453C80.3358 464.198 80.3131 461.817 80.8955 459.55C82.7389 454.809 86.2987 450.935 90.8675 448.699C101.34 442.699 115.998 441.217 130.263 444.499C131.658 446.845 133.059 449.203 134.463 451.474C135.299 453.116 136.327 454.653 137.526 456.052C138.42 456.724 139.405 457.265 140.451 457.66C247.827 506.449 247.02 505.777 257.88 511.936C260.139 513.217 260.832 514.495 263.517 512.806C268.119 509.914 285.303 498.151 366.276 453.961C380.358 446.278 379.134 447.091 382.896 444.856C382.754 445.108 382.592 445.348 382.413 445.576C381.681 446.866 382.767 448.084 384.045 446.776L384.09 446.8C385.968 444.529 387.719 442.157 389.334 439.693C389.452 439.626 389.554 439.535 389.634 439.426C389.76 439.252 393.549 434.026 395.148 431.791C401.241 430.562 407.517 430.552 413.613 431.764ZM475.113 300.796C445.446 345.481 423.879 385.546 395.913 426.196C450.621 295.849 449.211 298.918 455.547 287.221C479.547 298.243 477.213 297.037 477.516 297.316C476.848 298.562 476.044 299.73 475.119 300.799L475.113 300.796Z" fill="url(#paint12_linear_715_1098)"/>
<defs>
<linearGradient id="paint0_linear_715_1098" x1="236.991" y1="134.858" x2="242.468" y2="136.086" gradientUnits="userSpaceOnUse">
<stop stop-color="#AC344B"/>
<stop offset="0.650677" stop-color="#D87084"/>
<stop offset="1" stop-color="#FFBD98"/>
</linearGradient>
<linearGradient id="paint1_linear_715_1098" x1="244.107" y1="133.495" x2="256.238" y2="136.219" gradientUnits="userSpaceOnUse">
<stop stop-color="#AC344B"/>
<stop offset="0.650677" stop-color="#D87084"/>
<stop offset="1" stop-color="#FFBD98"/>
</linearGradient>
<linearGradient id="paint2_linear_715_1098" x1="238.559" y1="143.751" x2="254.079" y2="150.026" gradientUnits="userSpaceOnUse">
<stop stop-color="#AC344B"/>
<stop offset="0.650677" stop-color="#D87084"/>
<stop offset="1" stop-color="#FFBD98"/>
</linearGradient>
<linearGradient id="paint3_linear_715_1098" x1="233.582" y1="130.417" x2="240.232" y2="132.651" gradientUnits="userSpaceOnUse">
<stop stop-color="#AC344B"/>
<stop offset="0.650677" stop-color="#D87084"/>
<stop offset="1" stop-color="#FFBD98"/>
</linearGradient>
<linearGradient id="paint4_linear_715_1098" x1="37.7417" y1="230.787" x2="105.45" y2="260.832" gradientUnits="userSpaceOnUse">
<stop stop-color="#AC344B"/>
<stop offset="0.650677" stop-color="#D87084"/>
<stop offset="1" stop-color="#FFBD98"/>
</linearGradient>
<linearGradient id="paint5_linear_715_1098" x1="0.308594" y1="167.618" x2="4.36155" y2="187.381" gradientUnits="userSpaceOnUse">
<stop stop-color="#AC344B"/>
<stop offset="0.650677" stop-color="#D87084"/>
<stop offset="1" stop-color="#FFBD98"/>
</linearGradient>
<linearGradient id="paint6_linear_715_1098" x1="50.6499" y1="32.6406" x2="93.8955" y2="45.2681" gradientUnits="userSpaceOnUse">
<stop stop-color="#AC344B"/>
<stop offset="0.650677" stop-color="#D87084"/>
<stop offset="1" stop-color="#FFBD98"/>
</linearGradient>
<linearGradient id="paint7_linear_715_1098" x1="125.592" y1="15.5474" x2="145.86" y2="18.89" gradientUnits="userSpaceOnUse">
<stop stop-color="#AC344B"/>
<stop offset="0.650677" stop-color="#D87084"/>
<stop offset="1" stop-color="#FFBD98"/>
</linearGradient>
<linearGradient id="paint8_linear_715_1098" x1="277.221" y1="0.941895" x2="292.91" y2="2.10672" gradientUnits="userSpaceOnUse">
<stop stop-color="#AC344B"/>
<stop offset="0.650677" stop-color="#D87084"/>
<stop offset="1" stop-color="#FFBD98"/>
</linearGradient>
<linearGradient id="paint9_linear_715_1098" x1="384.037" y1="34.394" x2="448.091" y2="54.4129" gradientUnits="userSpaceOnUse">
<stop stop-color="#AC344B"/>
<stop offset="0.650677" stop-color="#D87084"/>
<stop offset="1" stop-color="#FFBD98"/>
</linearGradient>
<linearGradient id="paint10_linear_715_1098" x1="419.206" y1="119.048" x2="450.325" y2="141.825" gradientUnits="userSpaceOnUse">
<stop stop-color="#AC344B"/>
<stop offset="0.650677" stop-color="#D87084"/>
<stop offset="1" stop-color="#FFBD98"/>
</linearGradient>
<linearGradient id="paint11_linear_715_1098" x1="413.659" y1="230.295" x2="419.062" y2="256.378" gradientUnits="userSpaceOnUse">
<stop stop-color="#AC344B"/>
<stop offset="0.650677" stop-color="#D87084"/>
<stop offset="1" stop-color="#FFBD98"/>
</linearGradient>
<linearGradient id="paint12_linear_715_1098" x1="43.5078" y1="95.9556" x2="569.636" y2="233.851" gradientUnits="userSpaceOnUse">
<stop stop-color="#AC344B"/>
<stop offset="0.650677" stop-color="#D87084"/>
<stop offset="1" stop-color="#FFBD98"/>
</linearGradient>
</defs>
</svg>
