<svg width="131" height="85" viewBox="0 0 131 85" fill="none" xmlns="http://www.w3.org/2000/svg">
<path d="M99.3252 34.2045C99.9164 34.4958 100.564 34.6547 101.223 34.6703C101.26 34.6661 101.295 34.6545 101.328 34.6363C101.36 34.6181 101.389 34.5937 101.412 34.5644C101.435 34.535 101.452 34.5014 101.462 34.4655C101.471 34.4296 101.474 34.3921 101.469 34.3552C101.414 33.9236 100.928 34.2935 99.5787 33.6702L99.6472 33.1633C99.6814 33.0194 99.5102 32.7865 99.3252 32.855C99.1403 32.9235 99.0923 33.1427 99.0375 33.54C98.9827 33.9373 98.9553 34.0195 99.3252 34.2045ZM27.8249 36.1499C28.6492 35.9258 29.4233 35.5468 30.106 35.0333C30.3731 34.8278 30.2841 34.3483 30.2087 34.0743C30.1873 34.0033 30.1403 33.9426 30.0769 33.904C30.0135 33.8654 29.9381 33.8515 29.8651 33.8651C29.7921 33.8787 29.7267 33.9188 29.6814 33.9776C29.6361 34.0364 29.6141 34.1099 29.6196 34.1839C29.6327 34.3324 29.6602 34.4792 29.7018 34.6223C28.0784 35.8074 27.4482 35.5128 27.5441 35.9923C27.5654 36.0471 27.605 36.0927 27.6563 36.1215C27.7075 36.1502 27.7671 36.1602 27.8249 36.1499ZM25.9617 34.8826C27.3317 34.8826 26.8659 34.0743 26.496 34.1976L25.9686 34.2798C25.5165 32.1358 25.8795 31.6837 25.4891 31.67C25.4302 31.6662 25.3722 31.6855 25.3274 31.7239C25.2826 31.7623 25.2546 31.8167 25.2493 31.8755C25.201 32.7225 25.2631 33.5722 25.4343 34.4031C25.5096 34.773 25.6466 34.8826 25.9617 34.8826ZM65.7397 33.7044C66.1301 33.7044 68.1851 33.2592 68.5345 33.2044C69.0482 33.1153 69.6579 32.9578 69.699 32.4029C69.699 32.0604 69.4524 31.6631 69.1715 31.8686C69.1131 31.9096 69.07 31.9689 69.0489 32.0371C69.0278 32.1053 69.03 32.1786 69.0551 32.2454C69.1578 32.5125 68.9386 32.492 65.6301 33.2112C65.5693 33.23 65.5177 33.271 65.4858 33.3261C65.4538 33.3811 65.4437 33.4462 65.4575 33.5084C65.4713 33.5705 65.508 33.6252 65.5603 33.6615C65.6126 33.6978 65.6766 33.7132 65.7397 33.7044ZM20.6872 16.9356C20.8379 17.1069 21.2078 16.9356 21.0982 16.6753C20.4132 15.0039 19.1528 13.1407 18.3582 11.3049C18.2349 11.0104 17.9883 10.5103 17.7486 10.4829C17.7186 10.4787 17.688 10.4829 17.6602 10.495C17.6323 10.5071 17.6084 10.5266 17.591 10.5514C17.4403 10.7569 17.6595 11.3255 17.7623 11.5652C18.0774 12.2434 19.6049 15.6958 20.6872 16.9356ZM42.8949 14.0449C42.9078 14.0984 42.9344 14.1476 42.9721 14.1876C43.0099 14.2276 43.0574 14.2571 43.1101 14.273C43.1627 14.2889 43.2186 14.2908 43.2722 14.2784C43.3258 14.2661 43.3752 14.2399 43.4155 14.2025C43.9811 13.6875 44.495 13.1186 44.9499 12.5037C47.0049 19.0797 47.0049 19.3126 47.3269 19.3126C47.373 19.3113 47.4184 19.3001 47.4598 19.2798C47.5013 19.2594 47.5378 19.2304 47.5671 19.1946C47.5963 19.1589 47.6175 19.1173 47.6293 19.0726C47.641 19.028 47.643 18.9813 47.6351 18.9358C46.8679 16.5109 46.0596 14.1408 45.3609 11.7228C45.3453 11.6627 45.3122 11.6086 45.2659 11.5672C45.2196 11.5258 45.1621 11.4991 45.1006 11.4903C45.0391 11.4815 44.9764 11.4911 44.9203 11.5178C44.8643 11.5446 44.8174 11.5873 44.7855 11.6406C44.3922 12.2593 43.9328 12.8335 43.4155 13.3531C43.0045 11.4762 42.0455 7.18809 42.0455 7.18809C42.0283 7.11906 41.9843 7.05971 41.9233 7.0231C41.8623 6.98648 41.7892 6.97561 41.7202 6.99287C41.6511 7.01013 41.5918 7.0541 41.5552 7.11512C41.5185 7.17614 41.5077 7.24921 41.5249 7.31824C41.7578 8.37999 42.7511 13.5723 42.8949 14.0449ZM7.21329 49.6786C5.00759 48.6237 3.04164 47.5414 0.78114 46.3495C0.34274 46.1166 0.0413399 46.9181 0.72634 47.103C2.69993 48.3349 4.8044 49.3435 7.00094 50.1102C7.27494 50.1855 7.46674 49.8293 7.21329 49.6786ZM8.96689 33.862C9.01398 33.9037 9.07268 33.9299 9.13513 33.9373C9.19757 33.9446 9.26077 33.9327 9.31624 33.9031C9.76834 33.6839 9.18609 33.1427 9.40529 29.889C14.9606 36.5951 14.6524 36.4239 14.8853 36.4239C14.9335 36.4269 14.9816 36.4161 15.0239 36.3927C15.0661 36.3692 15.1008 36.3342 15.1239 36.2918C15.1469 36.2493 15.1573 36.2011 15.1539 36.1529C15.1504 36.1047 15.1333 36.0585 15.1045 36.0197C14.2345 34.9237 10.4259 30.1904 9.41214 28.9026C9.37401 28.8543 9.32284 28.8179 9.26469 28.7978C9.20653 28.7777 9.14383 28.7747 9.084 28.7891C9.02418 28.8035 8.96974 28.8347 8.92713 28.8791C8.88452 28.9235 8.85553 28.9792 8.84359 29.0396C8.70433 30.2906 8.6814 31.5518 8.77509 32.8071C6.72009 30.9644 4.75414 29.0122 2.67859 27.2175C2.61575 27.1671 2.53715 27.1404 2.45661 27.1422C2.37606 27.144 2.29872 27.1741 2.23819 27.2273C2.17766 27.2805 2.13781 27.3533 2.12565 27.4329C2.11349 27.5125 2.12979 27.5939 2.17169 27.6627C2.97999 28.9163 7.54209 32.5673 8.96689 33.862ZM62.9997 8.45534C62.9997 8.52256 63.0264 8.58703 63.0739 8.63456C63.1214 8.68209 63.1859 8.70879 63.2531 8.70879C63.3204 8.70879 63.3848 8.68209 63.4324 8.63456C63.4799 8.58703 63.5066 8.52256 63.5066 8.45534C63.624 5.9393 63.5186 3.4178 63.1915 0.920343C63.1844 0.854448 63.1584 0.792013 63.1166 0.740606C63.0748 0.689199 63.0189 0.65103 62.9559 0.630726C62.8928 0.610423 62.8251 0.608859 62.7612 0.626222C62.6972 0.643584 62.6397 0.679128 62.5955 0.728544C62.2873 1.12584 63.0271 2.37939 62.9997 8.45534ZM81.5358 20.3538C86.7486 11.5584 86.4678 11.9968 86.4267 11.8392C86.3102 11.4419 85.9814 11.6337 83.3442 12.4283C84.0292 9.99659 84.8854 7.40044 85.454 4.94129C85.4658 4.86177 85.4474 4.78072 85.4025 4.71405C85.3576 4.64739 85.2893 4.59995 85.2112 4.58106C85.133 4.56217 85.0507 4.5732 84.9802 4.61197C84.9098 4.65074 84.8565 4.71446 84.8306 4.79059C84.0566 7.53059 83.2894 10.2089 82.5496 12.8393C82.5376 12.8937 82.5397 12.9502 82.5555 13.0036C82.5714 13.057 82.6005 13.1054 82.6403 13.1444C82.68 13.1835 82.7289 13.2118 82.7825 13.2267C82.8362 13.2416 82.8927 13.2427 82.9469 13.2298C82.9469 13.2298 84.7621 12.6681 85.4951 12.4283L81.1179 20.1209C81.0921 20.1759 81.088 20.2386 81.1066 20.2964C81.1252 20.3542 81.1651 20.4028 81.2181 20.4324C81.2712 20.462 81.3335 20.4703 81.3924 20.4557C81.4514 20.4411 81.5026 20.4047 81.5358 20.3538ZM130.513 40.4448C130.157 40.2736 123.567 44.3699 123.499 44.4178C123.259 44.5891 123.499 45.0138 123.745 44.8836C124.143 44.7055 130.438 41.2052 130.65 40.8284C130.667 40.7943 130.676 40.7572 130.678 40.7194C130.68 40.6816 130.674 40.6439 130.661 40.6082C130.649 40.5726 130.629 40.5398 130.604 40.5118C130.578 40.4837 130.547 40.461 130.513 40.4448ZM113.073 32.6153C113.073 32.6153 119.677 27.5805 120.91 26.6215C121.177 26.4092 120.91 25.9365 120.594 25.9708C119.352 26.0004 118.114 26.1403 116.895 26.3886C118.664 24.5023 120.229 22.4361 121.567 20.2236C121.793 19.8537 121.245 19.4701 121.026 19.8469C119.517 22.3087 117.721 24.5828 115.676 26.6215C115.457 26.8339 115.594 27.3545 115.95 27.3065C117.159 26.9987 118.392 26.7924 119.635 26.69C119.635 26.69 114.402 30.9028 112.785 32.2385C112.758 32.2822 112.745 32.3332 112.748 32.3845C112.75 32.4359 112.768 32.4854 112.799 32.5263C112.83 32.5671 112.873 32.5976 112.922 32.6135C112.971 32.6294 113.024 32.63 113.073 32.6153ZM103.627 12.7845C107.833 5.53724 108.566 4.48234 107.86 4.30424C107.559 4.22889 107.573 4.2563 103.154 12.5242C103.134 12.5852 103.135 12.6515 103.158 12.7115C103.182 12.7715 103.225 12.8215 103.282 12.8525C103.338 12.8836 103.404 12.8938 103.467 12.8813C103.53 12.8689 103.587 12.8346 103.627 12.7845Z" fill="#AC344B"/>
<path d="M123.04 57.4949C120.245 48.679 113.183 41.8975 103.648 38.8972C103.641 38.7226 103.623 38.5487 103.593 38.3766C106.196 37.2395 106.778 33.3281 106.203 29.9237C106.703 29.1085 108.032 24.9163 107.052 25.4917L105.264 26.5466C105.011 25.8616 104.716 25.2246 104.401 24.5944C104.47 23.4984 103.469 21.5393 101.709 20.2583C100.092 19.0801 97.3113 18.0252 93.2561 19.7103C90.0914 21.0255 86.5226 23.9299 85.9814 28.1495C85.2964 33.6295 87.1117 36.2873 83.7209 41.3769C79.9743 39.6804 75.9806 38.5936 71.891 38.1574C71.8912 37.8504 71.8706 37.5437 71.8293 37.2395C73.5761 36.3558 73.946 33.4788 74.0213 32.5404C76.0763 30.7594 76.3161 27.2111 74.7063 27.1289C75.12 24.5869 75.2784 22.0099 75.179 19.4363C75.0899 17.8403 74.4049 17.4841 74.0898 17.4156C73.8675 17.3735 73.6378 17.3949 73.427 17.4773C73.2162 17.5597 73.0329 17.6997 72.8979 17.8814C72.3842 16.8333 71.3978 16.9635 70.8429 17.7581C70.7885 17.4761 70.6467 17.2183 70.4377 17.0212C70.2288 16.8242 69.9631 16.6978 69.6784 16.6599C69.3937 16.622 69.1042 16.6746 68.851 16.8102C68.5978 16.9458 68.3936 17.1576 68.2673 17.4156C68.1345 17.1328 67.9207 16.8959 67.6529 16.7349C67.3851 16.574 67.0755 16.4963 66.7635 16.5117C66.4515 16.5271 66.151 16.6349 65.9004 16.8215C65.6498 17.0081 65.4604 17.2649 65.3561 17.5594C64.6711 16.073 62.9243 16.4155 62.5339 17.9225C62.0201 16.7648 60.6159 16.7717 60.1295 18.1143C58.8486 17.169 57.8416 18.1143 57.6361 19.6692C57.5117 22.3133 57.6217 24.9632 57.9649 27.5878C55.6428 27.0672 57.4512 32.5061 58.8349 32.6363C59.0746 34.6913 59.924 36.9518 61.5749 37.4998C61.5749 37.7738 61.5338 38.0546 61.5338 38.3286C57.1048 39.0359 52.8425 40.5472 48.9572 42.788C46.82 41.281 42.0661 39.2328 37.4971 39.6096C36.6693 37.8605 36.0464 36.0217 35.6408 34.1296C35.3394 32.4787 36.1134 31.828 36.1066 30.4032C36.9935 28.6159 37.2145 26.571 36.7299 24.6355C34.5722 17.7855 21.5366 20.3885 21.9065 27.9098C21.9545 28.766 22.0298 29.6223 22.1052 30.2867C20.4954 30.7731 20.7352 30.8895 21.1804 32.8486C21.4202 33.9172 21.6942 34.8009 22.8176 34.568C23.3313 36.7942 24.626 40.3494 27.6811 40.3494C27.866 40.3494 27.6811 40.2329 27.8523 41.3837C20.1872 44.7197 10.5629 50.9737 8.06953 61.9337C7.46673 64.5778 7.10368 68.3316 8.82988 71.1675C10.7273 74.3254 14.0838 74.524 16.495 74.3665C15.9306 77.4676 15.7489 80.6262 15.9539 83.7715C15.9551 83.8155 15.9684 83.8582 15.9923 83.8951C16.0162 83.932 16.0498 83.9616 16.0894 83.9807C16.129 83.9998 16.1731 84.0077 16.2168 84.0034C16.2606 83.9991 16.3023 83.9829 16.3375 83.9565C16.7074 83.7373 15.9813 83.5044 17.1389 74.3185C23.5916 73.7226 29.7429 70.9483 35.4284 68.0302C36.3669 68.7152 37.2985 69.4002 38.2643 70.0167C39.0584 71.6224 40.2753 72.9811 41.784 73.9467C43.2928 74.9123 45.0362 75.4482 46.8268 75.4967C46.6556 78.3803 46.6556 81.2716 46.8268 84.1551C46.8294 84.19 46.8389 84.224 46.8549 84.2551C46.8709 84.2862 46.8929 84.3137 46.9198 84.3361C46.9466 84.3585 46.9777 84.3752 47.0112 84.3853C47.0446 84.3954 47.0798 84.3987 47.1145 84.3949C47.7036 84.3401 46.9433 84.0455 47.4091 75.4899C53.1083 75.4899 57.7868 71.7703 62.4791 68.9276C68.0002 71.4552 81.5358 76.1612 88.694 74.8049C89.0228 77.723 88.9749 80.4904 89.2557 83.3126C89.2648 83.3632 89.2914 83.4091 89.3308 83.4421C89.3703 83.4751 89.4201 83.4932 89.4715 83.4932C89.5229 83.4932 89.5728 83.4751 89.6122 83.4421C89.6516 83.4091 89.6782 83.3632 89.6873 83.3126C89.8671 80.4289 89.75 77.5344 89.3379 74.6747C94.3042 73.4965 97.3524 69.9962 98.1607 64.5573C98.4895 64.3381 98.8457 64.0915 99.2156 63.8106C103.456 65.5026 112.231 69.6194 116.519 69.7701C116.32 72.9554 116.039 76.3187 115.991 79.6204C116.001 79.6762 116.03 79.7268 116.073 79.7633C116.116 79.7998 116.171 79.8198 116.228 79.8198C116.284 79.8198 116.339 79.7998 116.382 79.7633C116.425 79.7268 116.454 79.6762 116.464 79.6204C116.56 78.7094 117.183 70.9346 117.149 69.7496C124.013 69.592 125.095 63.975 123.04 57.4949ZM74.1583 28.218C74.3433 27.9714 74.446 27.6837 74.7132 27.7659C75.6722 28.0468 74.905 30.4306 74.1035 31.4923C74.172 30.4032 74.1926 29.3003 74.1583 28.218ZM57.8074 28.218C58.0266 28.218 57.9992 28.3139 58.4924 28.4098L58.7664 31.7937C57.7526 30.8553 57.0196 28.2317 57.8074 28.2317V28.218ZM105.401 27.533C105.43 27.4368 105.496 27.356 105.585 27.3084C105.674 27.2609 105.778 27.2505 105.874 27.2796C105.97 27.3087 106.051 27.3748 106.098 27.4634C106.146 27.5521 106.156 27.656 106.127 27.7522C105.888 28.6016 105.703 29.2181 105.545 29.8072C105.505 29.8805 105.448 29.9434 105.379 29.991C105.31 30.0385 105.231 30.0694 105.148 30.0812C104.545 30.1018 105.189 28.1495 105.401 27.5193V27.533ZM93.8726 30.273C94.2631 29.9785 94.7357 30.3552 94.8111 30.3621C95.455 30.7731 96.1811 30.1771 95.9961 30.0059L95.8591 29.8963C95.3522 29.499 94.311 28.677 94.5302 28.1153C94.6946 27.6906 95.3659 27.7522 95.8043 27.7317C95.8199 27.7312 95.8352 27.7272 95.849 27.72C95.8627 27.7127 95.8747 27.7025 95.8839 27.6899C95.8932 27.6774 95.8994 27.6629 95.9023 27.6476C95.9051 27.6323 95.9044 27.6165 95.9002 27.6015C95.8317 27.3823 95.7495 27.1631 95.6673 26.9165C98.256 25.6326 101.094 24.9312 103.983 24.8615C104.278 25.5465 104.531 26.1973 104.757 26.8412C103.901 27.3275 102.928 27.8618 102.702 28.8345C102.499 28.8093 102.292 28.83 102.098 28.8952C101.903 28.9604 101.726 29.0684 101.579 29.2113C100.503 27.9166 96.0509 28.0262 95.1536 28.0605C93.9959 28.1084 97.051 30.4443 97.8936 31.1019C100.723 33.3007 102.572 31.7869 101.867 29.7798C101.965 29.6586 102.095 29.5664 102.243 29.5134C102.39 29.4603 102.549 29.4482 102.702 29.4784C102.728 29.6086 102.769 29.7351 102.826 29.8552C102.792 29.8383 102.754 29.8295 102.716 29.8295C102.678 29.8295 102.64 29.8383 102.606 29.8552C102.326 30.0333 102.606 30.273 103.25 31.417C103.171 31.4978 103.086 31.5733 102.997 31.643C102.737 31.8348 102.963 32.6705 103.833 31.643C103.963 31.4855 103.716 31.0265 103.442 30.6224C103.773 30.8478 104.169 30.9566 104.568 30.9318C104.968 30.907 105.348 30.7499 105.648 30.4854C105.947 32.3245 105.778 34.2093 105.155 35.9654C104.47 37.6436 102.75 37.7395 103.1 38.3766C103.19 40.635 103.006 42.896 102.552 45.1101C100.791 44.7265 97.325 40.4316 95.9413 38.4382C96.0847 36.7726 95.8698 35.0956 95.3111 33.5199C94.8522 32.7253 93.9411 32.3623 93.7014 31.4649C93.6078 31.2648 93.5742 31.0419 93.6046 30.8231C93.635 30.6043 93.7281 30.399 93.8726 30.2319V30.273ZM104.257 29.1291C104.182 29.3551 104.134 29.6702 103.887 29.6702C103.641 29.6702 103.517 29.3825 103.545 29.1359C103.572 28.8893 103.641 28.3208 103.901 28.1701C103.951 28.1453 104.006 28.1325 104.062 28.1325C104.118 28.1325 104.173 28.1453 104.223 28.1701C104.545 28.2591 104.374 28.7386 104.257 29.088V29.1291ZM100.565 30.7046C100.49 30.8895 100.414 31.2252 100.195 31.3279C100.157 31.3467 100.115 31.3565 100.072 31.3565C100.029 31.3565 99.987 31.3467 99.9486 31.3279C99.5376 31.1772 99.9897 29.6497 100.36 29.3551C100.392 29.3223 100.432 29.2981 100.476 29.2848C100.52 29.2715 100.567 29.2695 100.612 29.2791C100.657 29.2886 100.699 29.3094 100.734 29.3395C100.769 29.3695 100.796 29.4079 100.812 29.451C100.956 29.7661 100.606 30.5607 100.565 30.6635V30.7046ZM99.0649 30.0401C98.9759 30.2182 98.9348 30.3826 98.7019 30.3826C98.6471 30.3864 98.5922 30.3767 98.5421 30.3544C98.4919 30.332 98.448 30.2977 98.4142 30.2544C98.3804 30.2112 98.3577 30.1602 98.3481 30.1062C98.3386 30.0521 98.3424 29.9965 98.3594 29.9442C98.4347 29.7182 98.5169 29.2044 98.7909 29.0674C98.8344 29.0474 98.8814 29.0364 98.9292 29.0353C98.977 29.0342 99.0246 29.0429 99.0689 29.0608C99.1132 29.0788 99.1533 29.1057 99.1868 29.1398C99.2203 29.174 99.2464 29.2146 99.2636 29.2592C99.3595 29.4853 99.2019 29.7935 99.0649 30.0401ZM95.6399 38.8218C97.5853 42.1783 102.709 47.0418 103.106 45.4115C103.555 43.4762 103.762 41.493 103.723 39.5068C113.107 42.8222 119.478 48.8982 122.252 57.0976C120.244 56.1392 118.038 55.6697 115.813 55.7276C115.717 53.474 112.628 49.1174 111.443 47.809C111.203 47.5419 110.758 47.8844 111.018 48.1515C112.795 50.1635 114.155 52.5081 115.019 55.0495C111.662 52.5218 104.901 48.9941 95.6331 51.8985C93.2286 47.7943 89.7178 44.4496 85.5019 42.2468C88.5356 40.2629 92.0246 39.0841 95.6399 38.8218ZM59.9172 23.3682C64.0365 22.2439 68.3647 22.1194 72.5417 23.0052C72.4714 24.166 72.5081 25.3309 72.6513 26.485H72.528C71.9595 23.8683 68.3153 23.06 67.0891 25.8C66.4628 25.5876 65.7838 25.5876 65.1574 25.8C63.9724 23.334 60.5405 24.1286 59.9103 26.5672H59.7802C59.9242 25.5074 59.9701 24.4365 59.9172 23.3682ZM69.2332 29.0058C69.3565 28.6564 70.4662 26.0671 71.1854 25.9918C71.2453 25.991 71.3045 26.0046 71.3581 26.0312C71.4117 26.0579 71.4581 26.097 71.4936 26.1452C71.5291 26.1934 71.5526 26.2493 71.5621 26.3084C71.5717 26.3675 71.567 26.4281 71.5485 26.485C70.937 27.3561 70.392 28.272 69.9182 29.225C69.7469 29.6497 69.0756 29.4853 69.2332 29.0058ZM68.2399 28.0468C68.1577 28.2523 67.7878 28.3756 67.6577 28.1358C67.5275 27.8961 67.8426 26.985 68.7331 25.6493C68.9592 25.3136 69.1715 25.1492 69.3565 25.1766C69.4167 25.1938 69.4717 25.2255 69.5169 25.2689C69.562 25.3122 69.5959 25.366 69.6155 25.4254C69.635 25.4849 69.6398 25.5482 69.6293 25.6099C69.6188 25.6716 69.5933 25.7298 69.5551 25.7794C69.0338 26.484 68.5927 27.2445 68.2399 28.0468ZM62.2804 29.1839C62.575 28.54 62.9038 27.8892 63.2189 27.2522C63.2525 27.1907 63.3021 27.1395 63.3623 27.1038C63.4226 27.0681 63.4913 27.0492 63.5614 27.0492C63.6314 27.0492 63.7002 27.0681 63.7604 27.1038C63.8207 27.1395 63.8703 27.1907 63.9039 27.2522C63.9469 27.3172 63.9698 27.3934 63.9698 27.4714C63.9698 27.5493 63.9469 27.6256 63.9039 27.6906C63.6025 28.2865 63.2942 28.9099 62.9654 29.5127C62.7051 29.8552 62.0749 29.5949 62.2804 29.1839ZM61.4516 28.3208L61.4105 28.3687C61.1981 28.677 60.6638 28.4783 60.8077 28.0879C61.2032 27.0354 61.7083 26.0275 62.3147 25.0807C62.6092 24.7245 63.2052 25.0328 62.9997 25.4506C62.5133 26.4233 61.9174 27.3344 61.4516 28.3208ZM59.0061 28.3824C59.4445 28.1975 59.5678 27.6974 59.6911 27.2659L59.835 27.2248C59.7991 27.7 59.8575 28.1776 60.0068 28.6302C60.1561 29.0828 60.3933 29.5014 60.7049 29.862C61.0744 30.2249 61.5374 30.4779 62.0422 30.593C62.5471 30.708 63.074 30.6805 63.5642 30.5136C64.0544 30.3466 64.4885 30.0468 64.8182 29.6475C65.1479 29.2482 65.3602 28.7652 65.4314 28.2523C65.3606 28.912 65.3309 29.5754 65.3424 30.2388C65.3424 30.6498 65.2465 31.1635 65.7534 31.1978H66.4384C66.7946 31.1978 66.8905 30.5813 66.4795 30.5744H65.9726C65.9326 29.354 65.9991 28.1323 66.1712 26.9234C66.2192 26.5877 65.7328 26.5398 65.6643 26.8549C65.3629 28.3276 65.6643 27.4851 65.3972 26.3959C65.8755 26.2245 66.3985 26.2245 66.8768 26.3959C66.726 26.9451 66.6962 27.5205 66.7897 28.0823C66.8831 28.6441 67.0975 29.1789 67.4179 29.6497C67.662 29.9659 67.9713 30.226 68.3246 30.4123C68.678 30.5986 69.0673 30.7068 69.4662 30.7295C69.865 30.7522 70.2641 30.689 70.6363 30.5441C71.0086 30.3991 71.3454 30.1759 71.6238 29.8894C72.2968 29.1385 72.6549 28.1573 72.6239 27.1494H72.7541C72.8363 27.7454 72.9596 28.5674 73.5898 28.5194C73.5213 30.8621 73.7268 34.8762 71.8704 36.3421C71.6307 36.5339 71.3567 36.7531 71.3224 36.9723C71.2367 37.6982 71.2367 38.4316 71.3224 39.1575C71.5211 41.0549 68.1988 44.8087 66.4795 46.4116C63.1641 41.9043 62.2119 41.4591 62.2188 37.5066C62.2188 37.1093 62.1708 37.0477 61.8968 36.9107C59.1226 35.5681 59.376 31.6978 59.0061 28.3824ZM61.568 38.9314C61.6434 41.0344 63.2942 43.8771 66.2055 46.9391C66.7946 47.7063 72.0006 41.3152 71.8978 39.9315V38.7739C85.9198 40.4247 95.9688 48.494 97.5716 59.3718C91.7491 58.2279 84.3922 59.5705 83.1455 59.8102C82.6109 56.4035 81.6033 53.0881 80.1521 49.9599C80.1276 49.8991 80.0799 49.8505 80.0195 49.8248C79.9591 49.7991 79.891 49.7984 79.8301 49.8229C79.7693 49.8475 79.7206 49.8952 79.695 49.9555C79.6693 50.0159 79.6686 50.084 79.6931 50.1449C80.9527 53.2324 81.8714 56.4481 82.4331 59.7349C78.83 55.94 73.35 54.2549 65.7123 54.5974C61.1151 54.8105 56.5485 55.4596 52.0739 56.5359C52.4318 54.447 53.2844 52.4741 54.5605 50.7819C54.5884 50.7309 54.5969 50.6715 54.5843 50.6147C54.5717 50.5579 54.5388 50.5076 54.4919 50.4732C54.4449 50.4389 54.3871 50.4227 54.3291 50.4279C54.2712 50.433 54.2171 50.459 54.1769 50.5011C52.7375 52.2795 51.7925 54.406 51.4369 56.6661C46.4705 57.8574 41.6475 59.5822 37.0519 61.8104C37.6821 48.3913 50.0874 41.1988 61.568 38.9314ZM31.8596 26.2452C31.8526 26.8956 31.8915 27.5457 31.976 28.1906C29.51 28.2523 25.5918 29.2113 22.6737 30.1155C22.5984 29.5127 22.4271 28.4167 22.4203 27.7659C25.3565 26.3666 28.6325 25.8388 31.8596 26.2452ZM29.6813 29.9237C28.3113 32.2527 28.6058 32.6637 28.1469 32.6637C28.0954 32.6668 28.0439 32.6575 27.9967 32.6366C27.9496 32.6157 27.9081 32.5837 27.8759 32.5435C27.8437 32.5032 27.8216 32.4557 27.8115 32.4051C27.8015 32.3545 27.8037 32.3022 27.8181 32.2527C28.4414 29.8963 29.0374 29.4579 29.3388 29.4031C29.4045 29.3897 29.4727 29.3963 29.5346 29.4221C29.5965 29.4478 29.6493 29.4915 29.6862 29.5475C29.723 29.6035 29.7423 29.6693 29.7414 29.7363C29.7405 29.8034 29.7196 29.8686 29.6813 29.9237ZM27.5646 30.4374C27.3112 30.8553 27.2495 31.4375 26.8796 31.3485C26.5097 31.2594 26.7769 30.4237 26.9961 29.9785C27.2153 29.5332 27.4071 29.5264 27.5372 29.5606C27.6106 29.5806 27.6758 29.623 27.7237 29.682C27.7717 29.741 27.7999 29.8136 27.8044 29.8894C27.7775 30.091 27.6944 30.2809 27.5646 30.4374ZM22.4682 31.8074C22.3929 31.9855 22.386 32.5335 22.0161 32.5335C21.9441 32.5363 21.8733 32.5149 21.8149 32.4727C21.7566 32.4305 21.7141 32.3699 21.6942 32.3006C21.6579 31.8214 21.8103 31.347 22.1189 30.9786C22.1825 30.9217 22.2625 30.8864 22.3474 30.8778C22.4323 30.8692 22.5178 30.8877 22.5915 30.9306C22.7559 31.0402 22.7217 31.3279 22.4682 31.7869V31.8074ZM22.7217 33.4035C23.345 31.1635 23.7012 30.8347 23.9136 30.7868C23.9572 30.7767 24.0028 30.7791 24.0452 30.7936C24.0876 30.8081 24.125 30.8343 24.1533 30.869C24.2464 30.9769 24.2932 31.1172 24.2835 31.2594L23.3793 33.5953C23.3511 33.6825 23.2895 33.7549 23.2079 33.7967C23.1263 33.8384 23.0315 33.8461 22.9443 33.8179C22.8571 33.7898 22.7847 33.7281 22.7429 33.6465C22.7012 33.565 22.6935 33.4701 22.7217 33.3829V33.4035ZM23.4067 34.4378C24.7219 34.0542 25.1466 34.1638 25.0027 32.1636C24.9548 31.5951 24.8452 30.3004 25.4206 30.321C25.8864 30.321 25.9001 32.4856 26.5919 33.1569C27.2838 33.8282 28.1811 33.3555 28.9346 33.1569C30.9896 32.5952 30.5375 31.7184 30.3868 28.9989L32.113 28.8619C32.8871 32.876 33.9283 29.8689 34.627 29.4168C35.0722 29.1359 35.4558 29.7524 35.538 30.2251C35.6956 31.2389 34.853 32.3486 35.0311 33.835C35.4348 35.9865 36.126 38.0739 37.0861 40.0411C35.586 42.8907 31.2773 45.5211 29.3593 46.5623C28.551 43.6305 28.4825 39.7808 27.9893 39.7945C25.7151 39.8082 24.2218 38.0889 23.3793 34.4173L23.4067 34.4378ZM27.914 42.0413C28.0373 43.0757 28.5442 47.5213 29.284 47.1514C31.1472 46.2746 36.819 42.5482 37.6273 40.1507C38.826 40.4247 42.5661 39.6986 48.3749 43.199C44.0884 45.7594 40.6488 49.5229 38.4835 54.022C32.9419 53.337 26.085 52.4807 20.3242 55.5221C22.0846 51.371 23.1395 50.96 22.6395 50.6312C22.6136 50.6135 22.5844 50.6012 22.5536 50.5951C22.5229 50.5889 22.4912 50.5891 22.4605 50.5955C22.4298 50.6019 22.4007 50.6144 22.3749 50.6323C22.3492 50.6502 22.3273 50.6732 22.3107 50.6997C22.1326 50.9669 19.6323 55.0974 19.5707 55.94C18.6048 56.5291 16.543 58.0361 15.9265 59.2211C13.4082 59.2702 10.9542 60.0249 8.84358 61.3994C10.926 53.337 17.5088 46.6445 27.8866 42.0208L27.914 42.0413ZM10.1519 71.9553C7.53523 69.2153 8.09693 64.6326 8.63808 62.1187C15.3237 57.7278 24.1602 59.6047 34.9147 67.7083C31.2979 69.2564 15.4949 77.4969 10.1519 71.9553ZM16.6183 59.2074C22.0572 53.1863 29.921 53.5699 38.2027 54.5905C36.0792 59.4883 35.8942 64.66 37.6684 68.8796C31.5034 64.2627 24.2218 59.1869 16.6183 59.1869V59.2074ZM47.3611 74.9624C40.6139 74.9624 36.9902 69.0372 37.0861 62.4612C46.6761 58.1525 55.0537 55.9468 64.2327 55.3098C72.6171 54.7275 78.2615 56.2551 81.9605 60.1048C63.8902 64.1531 56.4305 74.9419 47.3611 74.9419V74.9624ZM88.7899 74.2089C82.0838 75.7228 70.9799 71.7635 63.0887 68.6056C75.6653 61.1802 86.9815 58.3786 97.6607 60.0431C98.5032 67.6946 95.3522 72.7225 88.7899 74.2089ZM98.2909 63.838C98.6465 59.8771 97.8091 55.9003 95.8865 52.4191C103.243 50.5148 109.456 51.6245 114.854 55.803C107.764 56.3304 100.62 61.8652 98.284 63.838H98.2909ZM116.923 69.1605C112.731 69.1605 103.908 65.0505 99.8458 63.3928C104.189 60.1048 109.333 56.6181 115.525 56.3715C117.945 56.2221 120.357 56.7512 122.492 57.8991C124.328 64.0915 123.41 69.1194 116.916 69.1605H116.923Z" fill="#AC344B"/>
</svg>
